<svg xmlns="http://www.w3.org/2000/svg" viewBox="0 0 81.96 87.8"><defs><style>.cls-1{fill:#054ca5;}.cls-2{fill:#9abad8;}</style></defs><title>资源 14</title><g id="图层_2" data-name="图层 2"><g id="图层_1-2" data-name="图层 1"><path class="cls-1" d="M60.94,8.28a28.25,28.25,0,0,0-48.22,20c0,4.8,1.42,10.18,4.21,16A85.16,85.16,0,0,0,25.8,58.4,127.33,127.33,0,0,0,38.55,72.85a3.52,3.52,0,0,0,2.42,1,3.49,3.49,0,0,0,2.42-1A129.92,129.92,0,0,0,56.15,58.4,84.6,84.6,0,0,0,65,44.23c2.79-5.8,4.21-11.18,4.21-16A28,28,0,0,0,60.94,8.28Zm1.23,20c0,13.67-15.38,31-21.2,37-5.82-6.06-21.2-23.37-21.2-37a21.2,21.2,0,0,1,42.4,0Z"/><path class="cls-2" d="M41,14.83A13.42,13.42,0,1,0,54.39,28.25,13.43,13.43,0,0,0,41,14.83Zm6.36,13.42A6.36,6.36,0,1,1,41,21.89,6.37,6.37,0,0,1,47.33,28.25Z"/><path class="cls-2" d="M81.37,72.43,76.9,58.61a11.73,11.73,0,0,0-11.18-8.13h-.2a3.53,3.53,0,1,0,0,7.05h.2a4.67,4.67,0,0,1,4.47,3.26l4.48,13.82a4.72,4.72,0,0,1-4.48,6.15H11.76a4.7,4.7,0,0,1-4.48-6.14L11.71,60.8a4.68,4.68,0,0,1,4.48-3.27,3.53,3.53,0,1,0,0-7.05A11.69,11.69,0,0,0,5,58.65L.57,72.47A11.75,11.75,0,0,0,11.76,87.8H70.19A11.76,11.76,0,0,0,81.37,72.43Z"/></g></g></svg>