<svg xmlns="http://www.w3.org/2000/svg" viewBox="0 0 107.28 99.02"><defs><style>.cls-1{fill:#054ca5;}.cls-2{fill:#9abad8;}</style></defs><title>资源 15</title><g id="图层_2" data-name="图层 2"><g id="图层_1-2" data-name="图层 1"><path d="M70.22,8.29v.33a.32.32,0,0,1,0-.33c-.06-.13,0-.19,0-.34Z"/><path class="cls-1" d="M78.57,28.86H45.4a4.1,4.1,0,1,1,0-8.19H78.54a4.1,4.1,0,0,1,0,8.19Z"/><path class="cls-1" d="M78.57,45.4H45.4a4.1,4.1,0,1,1,0-8.19H78.54a4.1,4.1,0,0,1,0,8.19Z"/><path class="cls-2" d="M24.76,12.38V58.83a4.11,4.11,0,0,0,4.1,4.09h8.41c2.25,0-4.31-1.84-4.31-4.09V12.38a4.1,4.1,0,0,1,4.09-4.09H86.73a4.11,4.11,0,0,1,4.1,4.09V58.83a4.1,4.1,0,0,0,8.19,0V12.38A12.4,12.4,0,0,0,86.64,0H37.15A12.4,12.4,0,0,0,24.76,12.38Z"/><path class="cls-2" d="M20.67,8.29A12.4,12.4,0,0,0,8.29,20.67V61.94h8.28V20.67a4.12,4.12,0,0,1,4.1-4.1h7.2V8.29Z"/><path class="cls-1" d="M95.11,57.78H65.39a4.19,4.19,0,0,0-4,2.71,8.27,8.27,0,0,1-15.62,0,4.15,4.15,0,0,0-4-2.71H12.38A12.4,12.4,0,0,0,0,70.16V86.64A12.4,12.4,0,0,0,12.38,99H94.89a12.4,12.4,0,0,0,12.39-12.38V70.16A12.13,12.13,0,0,0,95.11,57.78Zm0,33H12.47a4.12,4.12,0,0,1-4.09-4.1V70.16a4.11,4.11,0,0,1,4.09-4.09H39.33a16.47,16.47,0,0,0,28.58,0H95.05a4.11,4.11,0,0,1,4.1,4.09l.06,16.54A4.12,4.12,0,0,1,95.11,90.8Z"/></g></g></svg>