<svg xmlns="http://www.w3.org/2000/svg" viewBox="0 0 90 79.19"><defs><style>.cls-1{fill:#054ca5;}.cls-2{fill:#9abad8;}</style></defs><title>资源 16</title><g id="图层_2" data-name="图层 2"><g id="图层_1-2" data-name="图层 1"><path class="cls-1" d="M24.52,43.55h32c1.06,0,2,1.53,2,3.51s-.92,3.5-2,3.5h-32c-1.07,0-2-1.52-2-3.5s.76-3.51,2-3.51Z"/><path class="cls-1" d="M33.35,57.26H59.7c.91,0,1.67,1.52,1.67,3.5s-.76,3.5-1.67,3.5H33.35c-.91,0-1.68-1.52-1.68-3.5,0-1.83.77-3.5,1.68-3.5Z"/><path class="cls-2" d="M84.06,24.21H68.68l-4.26,6.55H78.73L65.63,73.4h-41L11.73,30.76H50.1L46,24.21H5.94A6.22,6.22,0,0,0,0,30.46c0,3.5,2.59,4.72,5.94,4.72H7.31l13.55,44h49l13.55-44h.61c3.2,0,5.94-1.37,5.94-4.72a6.22,6.22,0,0,0-5.94-6.25Z"/><path class="cls-1" d="M52.84,0V16.45h-5l10,16.44L67.92,16.45h-5V0Z"/></g></g></svg>